<mxfile host="Electron" modified="2023-10-05T04:15:24.831Z" agent="Mozilla/5.0 (Windows NT 10.0; Win64; x64) AppleWebKit/537.36 (KHTML, like Gecko) draw.io/21.8.2 Chrome/114.0.5735.289 Electron/25.8.1 Safari/537.36" etag="XUCiB7EJux3DNiJz13FK" version="21.8.2" type="device">
  <diagram name="Page-1" id="ULAGQ0Em1MMR-LDolg1r">
    <mxGraphModel dx="720" dy="430" grid="1" gridSize="10" guides="1" tooltips="1" connect="1" arrows="1" fold="1" page="1" pageScale="1" pageWidth="1654" pageHeight="2336" math="0" shadow="0">
      <root>
        <mxCell id="0" />
        <mxCell id="1" parent="0" />
        <mxCell id="WyxXMqw_6YR5v5t40QAe-71" value="" style="rounded=0;whiteSpace=wrap;html=1;" parent="1" vertex="1">
          <mxGeometry x="250" y="493" width="120" height="60" as="geometry" />
        </mxCell>
        <mxCell id="WyxXMqw_6YR5v5t40QAe-3" value="" style="group" parent="1" vertex="1" connectable="0">
          <mxGeometry x="650" y="430" width="200" height="160" as="geometry" />
        </mxCell>
        <mxCell id="WyxXMqw_6YR5v5t40QAe-4" value="" style="rounded=1;whiteSpace=wrap;html=1;" parent="WyxXMqw_6YR5v5t40QAe-3" vertex="1">
          <mxGeometry width="200" height="160.00000000000003" as="geometry" />
        </mxCell>
        <mxCell id="WyxXMqw_6YR5v5t40QAe-5" value="" style="endArrow=none;html=1;rounded=0;entryX=1;entryY=0.25;entryDx=0;entryDy=0;" parent="WyxXMqw_6YR5v5t40QAe-3" target="WyxXMqw_6YR5v5t40QAe-4" edge="1">
          <mxGeometry width="50" height="50" relative="1" as="geometry">
            <mxPoint y="40.00000000000001" as="sourcePoint" />
            <mxPoint x="180" y="48.00000000000001" as="targetPoint" />
          </mxGeometry>
        </mxCell>
        <mxCell id="WyxXMqw_6YR5v5t40QAe-6" value="&lt;font style=&quot;font-size: 24px;&quot;&gt;Library Mgmt System&lt;/font&gt;" style="text;html=1;strokeColor=none;fillColor=none;align=center;verticalAlign=middle;whiteSpace=wrap;rounded=0;" parent="WyxXMqw_6YR5v5t40QAe-3" vertex="1">
          <mxGeometry x="58.285714285714285" y="63.396226415094354" width="85.71428571428571" height="57.358490566037744" as="geometry" />
        </mxCell>
        <mxCell id="WyxXMqw_6YR5v5t40QAe-7" value="&lt;font style=&quot;font-size: 14px;&quot;&gt;1.1&lt;/font&gt;" style="text;html=1;strokeColor=none;fillColor=none;align=center;verticalAlign=middle;whiteSpace=wrap;rounded=0;" parent="WyxXMqw_6YR5v5t40QAe-3" vertex="1">
          <mxGeometry y="10" width="60" height="30" as="geometry" />
        </mxCell>
        <mxCell id="WyxXMqw_6YR5v5t40QAe-8" style="edgeStyle=orthogonalEdgeStyle;rounded=0;orthogonalLoop=1;jettySize=auto;html=1;exitX=0.5;exitY=1;exitDx=0;exitDy=0;entryX=0;entryY=0.5;entryDx=0;entryDy=0;" parent="1" source="WyxXMqw_6YR5v5t40QAe-71" target="WyxXMqw_6YR5v5t40QAe-15" edge="1">
          <mxGeometry relative="1" as="geometry">
            <mxPoint x="304" y="554.8199999999999" as="sourcePoint" />
          </mxGeometry>
        </mxCell>
        <mxCell id="WyxXMqw_6YR5v5t40QAe-9" value="&lt;font style=&quot;font-size: 18px;&quot;&gt;Buy a Book&lt;/font&gt;" style="edgeLabel;html=1;align=center;verticalAlign=middle;resizable=0;points=[];" parent="WyxXMqw_6YR5v5t40QAe-8" vertex="1" connectable="0">
          <mxGeometry x="0.3941" y="1" relative="1" as="geometry">
            <mxPoint as="offset" />
          </mxGeometry>
        </mxCell>
        <mxCell id="WyxXMqw_6YR5v5t40QAe-10" value="" style="endArrow=classic;html=1;rounded=0;entryX=-0.023;entryY=0.447;entryDx=0;entryDy=0;entryPerimeter=0;exitX=1;exitY=0.25;exitDx=0;exitDy=0;" parent="1" target="WyxXMqw_6YR5v5t40QAe-4" edge="1">
          <mxGeometry relative="1" as="geometry">
            <mxPoint x="370" y="503" as="sourcePoint" />
            <mxPoint x="470" y="490" as="targetPoint" />
          </mxGeometry>
        </mxCell>
        <mxCell id="WyxXMqw_6YR5v5t40QAe-11" value="&lt;font style=&quot;font-size: 18px;&quot;&gt;Request a Book&lt;/font&gt;" style="edgeLabel;resizable=0;html=1;align=center;verticalAlign=middle;" parent="WyxXMqw_6YR5v5t40QAe-10" connectable="0" vertex="1">
          <mxGeometry relative="1" as="geometry" />
        </mxCell>
        <mxCell id="WyxXMqw_6YR5v5t40QAe-12" value="" style="endArrow=classic;html=1;rounded=0;exitX=-0.009;exitY=0.661;exitDx=0;exitDy=0;exitPerimeter=0;entryX=0.995;entryY=0.632;entryDx=0;entryDy=0;entryPerimeter=0;" parent="1" source="WyxXMqw_6YR5v5t40QAe-4" edge="1">
          <mxGeometry relative="1" as="geometry">
            <mxPoint x="470" y="540" as="sourcePoint" />
            <mxPoint x="369" y="537" as="targetPoint" />
          </mxGeometry>
        </mxCell>
        <mxCell id="WyxXMqw_6YR5v5t40QAe-13" value="&lt;font style=&quot;font-size: 18px;&quot;&gt;Provide a Book&lt;/font&gt;" style="edgeLabel;resizable=0;html=1;align=center;verticalAlign=middle;" parent="WyxXMqw_6YR5v5t40QAe-12" connectable="0" vertex="1">
          <mxGeometry relative="1" as="geometry" />
        </mxCell>
        <mxCell id="WyxXMqw_6YR5v5t40QAe-14" value="" style="group" parent="1" vertex="1" connectable="0">
          <mxGeometry x="650" y="740" width="200" height="160" as="geometry" />
        </mxCell>
        <mxCell id="WyxXMqw_6YR5v5t40QAe-15" value="" style="rounded=1;whiteSpace=wrap;html=1;" parent="WyxXMqw_6YR5v5t40QAe-14" vertex="1">
          <mxGeometry width="200" height="160.00000000000003" as="geometry" />
        </mxCell>
        <mxCell id="WyxXMqw_6YR5v5t40QAe-16" value="" style="endArrow=none;html=1;rounded=0;entryX=1;entryY=0.25;entryDx=0;entryDy=0;" parent="WyxXMqw_6YR5v5t40QAe-14" target="WyxXMqw_6YR5v5t40QAe-15" edge="1">
          <mxGeometry width="50" height="50" relative="1" as="geometry">
            <mxPoint y="40.00000000000001" as="sourcePoint" />
            <mxPoint x="180" y="48.00000000000001" as="targetPoint" />
          </mxGeometry>
        </mxCell>
        <mxCell id="WyxXMqw_6YR5v5t40QAe-17" value="&lt;font style=&quot;font-size: 14px;&quot;&gt;1.2&lt;/font&gt;" style="text;html=1;strokeColor=none;fillColor=none;align=center;verticalAlign=middle;whiteSpace=wrap;rounded=0;" parent="WyxXMqw_6YR5v5t40QAe-14" vertex="1">
          <mxGeometry x="-1.7100000000000364" y="10" width="60" height="30" as="geometry" />
        </mxCell>
        <mxCell id="WyxXMqw_6YR5v5t40QAe-18" value="&lt;font style=&quot;font-size: 18px;&quot;&gt;Book Buying&lt;/font&gt;" style="text;html=1;strokeColor=none;fillColor=none;align=center;verticalAlign=middle;whiteSpace=wrap;rounded=0;" parent="WyxXMqw_6YR5v5t40QAe-14" vertex="1">
          <mxGeometry x="70" y="80" width="60" height="30" as="geometry" />
        </mxCell>
        <mxCell id="WyxXMqw_6YR5v5t40QAe-19" value="" style="group" parent="1" vertex="1" connectable="0">
          <mxGeometry x="650" y="1030" width="200" height="160" as="geometry" />
        </mxCell>
        <mxCell id="WyxXMqw_6YR5v5t40QAe-20" value="" style="rounded=1;whiteSpace=wrap;html=1;" parent="WyxXMqw_6YR5v5t40QAe-19" vertex="1">
          <mxGeometry width="200" height="160.00000000000003" as="geometry" />
        </mxCell>
        <mxCell id="WyxXMqw_6YR5v5t40QAe-21" value="" style="endArrow=none;html=1;rounded=0;entryX=1;entryY=0.25;entryDx=0;entryDy=0;" parent="WyxXMqw_6YR5v5t40QAe-19" target="WyxXMqw_6YR5v5t40QAe-20" edge="1">
          <mxGeometry width="50" height="50" relative="1" as="geometry">
            <mxPoint y="40.00000000000001" as="sourcePoint" />
            <mxPoint x="180" y="48.00000000000001" as="targetPoint" />
          </mxGeometry>
        </mxCell>
        <mxCell id="WyxXMqw_6YR5v5t40QAe-22" value="&lt;span style=&quot;font-size: 24px;&quot;&gt;Borrow Book&lt;/span&gt;" style="text;html=1;strokeColor=none;fillColor=none;align=center;verticalAlign=middle;whiteSpace=wrap;rounded=0;" parent="WyxXMqw_6YR5v5t40QAe-19" vertex="1">
          <mxGeometry x="49.15" y="63.4" width="101.71" height="66.6" as="geometry" />
        </mxCell>
        <mxCell id="WyxXMqw_6YR5v5t40QAe-23" value="&lt;font style=&quot;font-size: 14px;&quot;&gt;1.3&lt;/font&gt;" style="text;html=1;strokeColor=none;fillColor=none;align=center;verticalAlign=middle;whiteSpace=wrap;rounded=0;" parent="WyxXMqw_6YR5v5t40QAe-19" vertex="1">
          <mxGeometry y="10" width="60" height="30" as="geometry" />
        </mxCell>
        <mxCell id="WyxXMqw_6YR5v5t40QAe-24" value="&lt;font style=&quot;font-size: 18px;&quot;&gt;Student&lt;/font&gt;" style="text;html=1;strokeColor=none;fillColor=none;align=center;verticalAlign=middle;whiteSpace=wrap;rounded=0;" parent="1" vertex="1">
          <mxGeometry x="280" y="510" width="60" height="30" as="geometry" />
        </mxCell>
        <mxCell id="WyxXMqw_6YR5v5t40QAe-41" value="" style="group" parent="1" vertex="1" connectable="0">
          <mxGeometry x="650" y="1280" width="200" height="160" as="geometry" />
        </mxCell>
        <mxCell id="WyxXMqw_6YR5v5t40QAe-42" value="" style="rounded=1;whiteSpace=wrap;html=1;" parent="WyxXMqw_6YR5v5t40QAe-41" vertex="1">
          <mxGeometry width="200" height="160.00000000000003" as="geometry" />
        </mxCell>
        <mxCell id="WyxXMqw_6YR5v5t40QAe-43" value="" style="endArrow=none;html=1;rounded=0;entryX=1;entryY=0.25;entryDx=0;entryDy=0;" parent="WyxXMqw_6YR5v5t40QAe-41" target="WyxXMqw_6YR5v5t40QAe-42" edge="1">
          <mxGeometry width="50" height="50" relative="1" as="geometry">
            <mxPoint y="40.00000000000001" as="sourcePoint" />
            <mxPoint x="180" y="48.00000000000001" as="targetPoint" />
          </mxGeometry>
        </mxCell>
        <mxCell id="WyxXMqw_6YR5v5t40QAe-44" value="&lt;span style=&quot;font-size: 24px;&quot;&gt;Generate Reports&lt;/span&gt;" style="text;html=1;strokeColor=none;fillColor=none;align=center;verticalAlign=middle;whiteSpace=wrap;rounded=0;" parent="WyxXMqw_6YR5v5t40QAe-41" vertex="1">
          <mxGeometry x="49.15" y="63.4" width="101.71" height="66.6" as="geometry" />
        </mxCell>
        <mxCell id="WyxXMqw_6YR5v5t40QAe-45" value="&lt;font style=&quot;font-size: 14px;&quot;&gt;1.4&lt;/font&gt;" style="text;html=1;strokeColor=none;fillColor=none;align=center;verticalAlign=middle;whiteSpace=wrap;rounded=0;" parent="WyxXMqw_6YR5v5t40QAe-41" vertex="1">
          <mxGeometry y="10" width="60" height="30" as="geometry" />
        </mxCell>
        <mxCell id="WyxXMqw_6YR5v5t40QAe-46" value="" style="html=1;dashed=0;whiteSpace=wrap;shape=mxgraph.dfd.dataStoreID;align=left;spacingLeft=3;points=[[0,0],[0.5,0],[1,0],[0,0.5],[1,0.5],[0,1],[0.5,1],[1,1]];" parent="1" vertex="1">
          <mxGeometry x="1055" y="470" width="230" height="80" as="geometry" />
        </mxCell>
        <mxCell id="WyxXMqw_6YR5v5t40QAe-47" value="&lt;font style=&quot;font-size: 18px;&quot;&gt;Book Shelf&lt;/font&gt;" style="text;html=1;strokeColor=none;fillColor=none;align=center;verticalAlign=middle;whiteSpace=wrap;rounded=0;" parent="1" vertex="1">
          <mxGeometry x="1140" y="495" width="60" height="30" as="geometry" />
        </mxCell>
        <mxCell id="WyxXMqw_6YR5v5t40QAe-49" style="edgeStyle=orthogonalEdgeStyle;rounded=0;orthogonalLoop=1;jettySize=auto;html=1;exitX=0.5;exitY=0;exitDx=0;exitDy=0;entryX=0.5;entryY=1;entryDx=0;entryDy=0;" parent="1" source="WyxXMqw_6YR5v5t40QAe-15" target="WyxXMqw_6YR5v5t40QAe-46" edge="1">
          <mxGeometry relative="1" as="geometry" />
        </mxCell>
        <mxCell id="WyxXMqw_6YR5v5t40QAe-50" value="&lt;font style=&quot;font-size: 18px;&quot;&gt;Buy Book&lt;/font&gt;" style="edgeLabel;html=1;align=center;verticalAlign=middle;resizable=0;points=[];" parent="WyxXMqw_6YR5v5t40QAe-49" vertex="1" connectable="0">
          <mxGeometry x="-0.1494" y="-1" relative="1" as="geometry">
            <mxPoint x="-1" as="offset" />
          </mxGeometry>
        </mxCell>
        <mxCell id="WyxXMqw_6YR5v5t40QAe-51" style="edgeStyle=orthogonalEdgeStyle;rounded=0;orthogonalLoop=1;jettySize=auto;html=1;exitX=1;exitY=0.5;exitDx=0;exitDy=0;entryX=0;entryY=0.5;entryDx=0;entryDy=0;" parent="1" source="WyxXMqw_6YR5v5t40QAe-4" target="WyxXMqw_6YR5v5t40QAe-46" edge="1">
          <mxGeometry relative="1" as="geometry" />
        </mxCell>
        <mxCell id="WyxXMqw_6YR5v5t40QAe-52" value="&lt;font style=&quot;font-size: 18px;&quot;&gt;has&lt;/font&gt;" style="edgeLabel;html=1;align=center;verticalAlign=middle;resizable=0;points=[];" parent="WyxXMqw_6YR5v5t40QAe-51" vertex="1" connectable="0">
          <mxGeometry x="0.2" y="1" relative="1" as="geometry">
            <mxPoint as="offset" />
          </mxGeometry>
        </mxCell>
        <mxCell id="WyxXMqw_6YR5v5t40QAe-53" style="edgeStyle=orthogonalEdgeStyle;rounded=0;orthogonalLoop=1;jettySize=auto;html=1;exitX=1;exitY=0.5;exitDx=0;exitDy=0;entryX=0.749;entryY=1.036;entryDx=0;entryDy=0;entryPerimeter=0;" parent="1" source="WyxXMqw_6YR5v5t40QAe-20" target="WyxXMqw_6YR5v5t40QAe-46" edge="1">
          <mxGeometry relative="1" as="geometry" />
        </mxCell>
        <mxCell id="WyxXMqw_6YR5v5t40QAe-55" value="&lt;font style=&quot;font-size: 18px;&quot;&gt;Borrow Book&lt;/font&gt;" style="edgeLabel;html=1;align=center;verticalAlign=middle;resizable=0;points=[];" parent="WyxXMqw_6YR5v5t40QAe-53" vertex="1" connectable="0">
          <mxGeometry x="-0.4462" y="-3" relative="1" as="geometry">
            <mxPoint as="offset" />
          </mxGeometry>
        </mxCell>
        <mxCell id="WyxXMqw_6YR5v5t40QAe-62" style="edgeStyle=orthogonalEdgeStyle;rounded=0;orthogonalLoop=1;jettySize=auto;html=1;exitX=0.5;exitY=0;exitDx=0;exitDy=0;entryX=0;entryY=0.5;entryDx=0;entryDy=0;" parent="1" source="WyxXMqw_6YR5v5t40QAe-56" target="WyxXMqw_6YR5v5t40QAe-42" edge="1">
          <mxGeometry relative="1" as="geometry" />
        </mxCell>
        <mxCell id="WyxXMqw_6YR5v5t40QAe-66" value="&lt;font style=&quot;font-size: 18px;&quot;&gt;Logs&lt;/font&gt;" style="edgeLabel;html=1;align=center;verticalAlign=middle;resizable=0;points=[];" parent="WyxXMqw_6YR5v5t40QAe-62" vertex="1" connectable="0">
          <mxGeometry x="0.3523" relative="1" as="geometry">
            <mxPoint as="offset" />
          </mxGeometry>
        </mxCell>
        <mxCell id="WyxXMqw_6YR5v5t40QAe-56" value="" style="html=1;dashed=0;whiteSpace=wrap;shape=mxgraph.dfd.dataStoreID;align=left;spacingLeft=3;points=[[0,0],[0.5,0],[1,0],[0,0.5],[1,0.5],[0,1],[0.5,1],[1,1]];direction=west;" parent="1" vertex="1">
          <mxGeometry x="280" y="1090" width="230" height="80" as="geometry" />
        </mxCell>
        <mxCell id="WyxXMqw_6YR5v5t40QAe-63" style="edgeStyle=orthogonalEdgeStyle;rounded=0;orthogonalLoop=1;jettySize=auto;html=1;exitX=0.5;exitY=1;exitDx=0;exitDy=0;entryX=1;entryY=0.5;entryDx=0;entryDy=0;" parent="1" source="WyxXMqw_6YR5v5t40QAe-57" target="WyxXMqw_6YR5v5t40QAe-42" edge="1">
          <mxGeometry relative="1" as="geometry" />
        </mxCell>
        <mxCell id="WyxXMqw_6YR5v5t40QAe-67" value="&lt;font style=&quot;font-size: 18px;&quot;&gt;Logs&lt;/font&gt;" style="edgeLabel;html=1;align=center;verticalAlign=middle;resizable=0;points=[];" parent="WyxXMqw_6YR5v5t40QAe-63" vertex="1" connectable="0">
          <mxGeometry x="0.6227" relative="1" as="geometry">
            <mxPoint x="-1" as="offset" />
          </mxGeometry>
        </mxCell>
        <mxCell id="WyxXMqw_6YR5v5t40QAe-57" value="" style="html=1;dashed=0;whiteSpace=wrap;shape=mxgraph.dfd.dataStoreID;align=left;spacingLeft=3;points=[[0,0],[0.5,0],[1,0],[0,0.5],[1,0.5],[0,1],[0.5,1],[1,1]];" parent="1" vertex="1">
          <mxGeometry x="940" y="780" width="230" height="80" as="geometry" />
        </mxCell>
        <mxCell id="WyxXMqw_6YR5v5t40QAe-58" value="&lt;font style=&quot;font-size: 18px;&quot;&gt;Borrow Logs&lt;/font&gt;" style="text;html=1;strokeColor=none;fillColor=none;align=center;verticalAlign=middle;whiteSpace=wrap;rounded=0;" parent="1" vertex="1">
          <mxGeometry x="350" y="1112" width="60" height="30" as="geometry" />
        </mxCell>
        <mxCell id="WyxXMqw_6YR5v5t40QAe-59" value="&lt;font style=&quot;font-size: 18px;&quot;&gt;Buying Logs&lt;/font&gt;" style="text;html=1;strokeColor=none;fillColor=none;align=center;verticalAlign=middle;whiteSpace=wrap;rounded=0;" parent="1" vertex="1">
          <mxGeometry x="1025" y="805" width="60" height="30" as="geometry" />
        </mxCell>
        <mxCell id="WyxXMqw_6YR5v5t40QAe-60" style="edgeStyle=orthogonalEdgeStyle;rounded=0;orthogonalLoop=1;jettySize=auto;html=1;exitX=1;exitY=0.5;exitDx=0;exitDy=0;entryX=0;entryY=0.5;entryDx=0;entryDy=0;" parent="1" source="WyxXMqw_6YR5v5t40QAe-15" target="WyxXMqw_6YR5v5t40QAe-57" edge="1">
          <mxGeometry relative="1" as="geometry" />
        </mxCell>
        <mxCell id="WyxXMqw_6YR5v5t40QAe-61" style="edgeStyle=orthogonalEdgeStyle;rounded=0;orthogonalLoop=1;jettySize=auto;html=1;exitX=0;exitY=0.5;exitDx=0;exitDy=0;entryX=-0.004;entryY=0.746;entryDx=0;entryDy=0;entryPerimeter=0;" parent="1" source="WyxXMqw_6YR5v5t40QAe-20" target="WyxXMqw_6YR5v5t40QAe-56" edge="1">
          <mxGeometry relative="1" as="geometry" />
        </mxCell>
        <mxCell id="WyxXMqw_6YR5v5t40QAe-65" value="&lt;font style=&quot;font-size: 18px;&quot;&gt;Logs&lt;/font&gt;" style="edgeLabel;html=1;align=center;verticalAlign=middle;resizable=0;points=[];" parent="WyxXMqw_6YR5v5t40QAe-61" vertex="1" connectable="0">
          <mxGeometry x="-0.0149" relative="1" as="geometry">
            <mxPoint x="-1" as="offset" />
          </mxGeometry>
        </mxCell>
        <mxCell id="WyxXMqw_6YR5v5t40QAe-68" value="" style="html=1;dashed=0;whiteSpace=wrap;shape=mxgraph.dfd.dataStoreID;align=left;spacingLeft=3;points=[[0,0],[0.5,0],[1,0],[0,0.5],[1,0.5],[0,1],[0.5,1],[1,1]];direction=east;" parent="1" vertex="1">
          <mxGeometry x="635" y="1550" width="230" height="80" as="geometry" />
        </mxCell>
        <mxCell id="WyxXMqw_6YR5v5t40QAe-69" style="edgeStyle=orthogonalEdgeStyle;rounded=0;orthogonalLoop=1;jettySize=auto;html=1;exitX=0.5;exitY=1;exitDx=0;exitDy=0;entryX=0.5;entryY=0;entryDx=0;entryDy=0;" parent="1" source="WyxXMqw_6YR5v5t40QAe-42" target="WyxXMqw_6YR5v5t40QAe-68" edge="1">
          <mxGeometry relative="1" as="geometry" />
        </mxCell>
        <mxCell id="WyxXMqw_6YR5v5t40QAe-70" value="&lt;font style=&quot;font-size: 18px;&quot;&gt;Reports Inventory&lt;/font&gt;" style="text;html=1;strokeColor=none;fillColor=none;align=center;verticalAlign=middle;whiteSpace=wrap;rounded=0;" parent="1" vertex="1">
          <mxGeometry x="721" y="1580" width="60" height="30" as="geometry" />
        </mxCell>
      </root>
    </mxGraphModel>
  </diagram>
</mxfile>
